<?xml version="1.0" encoding="UTF-8" standalone="no"?>
<!DOCTYPE svg PUBLIC "-//W3C//DTD SVG 1.1//EN" "http://www.w3.org/Graphics/SVG/1.1/DTD/svg11.dtd">
<svg width="100%" height="100%" viewBox="0 0 4000 4000" version="1.1" xmlns="http://www.w3.org/2000/svg" xmlns:xlink="http://www.w3.org/1999/xlink" xml:space="preserve" xmlns:serif="http://www.serif.com/" style="fill-rule:evenodd;clip-rule:evenodd;stroke-linejoin:round;stroke-miterlimit:2;">
    <g>
        <path d="M3597.48,2994.36C3575.39,2994.4 3557.45,2976.53 3557.4,2954.44C3557.4,2952.63 3557.52,2950.83 3557.76,2949.04C3559.26,2937.69 3560.01,2926.25 3560,2914.8L3560,779.2C3559.82,636.519 3444.2,520.896 3301.52,520.72L698.36,520.72C555.707,520.918 440.132,636.547 440,779.2L440,2914.8C439.993,2926.25 440.742,2937.69 442.24,2949.04C445.584,2970.88 430.593,2991.29 408.756,2994.63C386.919,2997.98 366.506,2982.99 363.162,2961.15C363.085,2960.65 363.018,2960.14 362.96,2959.64C360.983,2944.78 359.994,2929.8 360,2914.8L360,779.2C360.176,592.382 511.542,440.962 698.36,440.72L3301.52,440.72C3488.37,440.94 3639.78,592.354 3640,779.2L3640,2914.8C3640.01,2929.8 3639.02,2944.78 3637.04,2959.64C3634.4,2979.48 3617.5,2994.32 3597.48,2994.36Z" style="fill-rule:nonzero;"/>
        <path d="M698.4,2735.28C555.754,2735.43 440.154,2851.03 440,2993.68L440,3220.76C440.154,3363.41 555.754,3479.01 698.4,3479.16L3301.56,3479.16C3444.21,3479.01 3559.81,3363.41 3559.96,3220.76L3559.96,2993.8C3559.81,2851.15 3444.21,2735.55 3301.56,2735.4L698.4,2735.28ZM3301.56,3559.28L698.4,3559.28C511.589,3559.08 360.198,3407.69 360,3220.88L360,2993.8C360.198,2806.99 511.589,2655.6 698.4,2655.4L3301.56,2655.4C3488.37,2655.6 3639.76,2806.99 3639.96,2993.8L3639.96,3220.88C3639.76,3407.69 3488.37,3559.08 3301.56,3559.28Z" style="fill-rule:nonzero;"/>
        <path d="M1699.6,2197.12C1583.83,2197.07 1473.18,2149.44 1393.56,2065.4L1348.92,2018.24C1284.35,1950.22 1194.71,1911.64 1100.92,1911.52L400,1911.52C377.909,1911.52 360,1893.61 360,1871.52C360,1849.43 377.909,1831.52 400,1831.52L1101.04,1831.52C1216.77,1831.71 1327.36,1879.32 1407.04,1963.24L1451.64,2010.4C1581.16,2147.3 1797.14,2153.28 1934.04,2023.76C1942.85,2015.42 1951.21,2006.62 1959.08,1997.4L2141.6,1783.6C2292.7,1606.65 2558.65,1585.7 2735.6,1736.8C2747.25,1746.75 2758.34,1757.32 2768.84,1768.48C2833.01,1837.4 2923.07,1876.38 3017.24,1876L3021.56,1876C3117.24,1875.28 3208.12,1833.99 3271.6,1762.4L3570.16,1429.2C3584.91,1412.74 3610.2,1411.35 3626.66,1426.1C3643.12,1440.85 3644.51,1466.14 3629.76,1482.6L3331.16,1816C3252.34,1903.71 3140.43,1954.47 3022.52,1956L3017.48,1956C2901.29,1955.9 2790.27,1907.94 2710.56,1823.4C2581.41,1686.15 2365.45,1679.59 2228.2,1808.74C2219.17,1817.23 2210.61,1826.21 2202.56,1835.64L2020,2049.361C1942.37,2140.2 1829.85,2193.84 1710.4,2196.96C1706.72,2197.08 1703.16,2197.12 1699.6,2197.12Z" style="fill-rule:nonzero;"/>
        <path d="M2015.32,2735.4C1993.23,2735.37 1975.34,2717.44 1975.37,2695.35C1975.38,2690.02 1976.45,2684.75 1978.52,2679.84L2033.88,2548.88C2095.32,2404.53 2249.59,2323.08 2403.44,2353.76L2565.08,2386.4C2617.92,2396.95 2672.75,2390.29 2721.52,2367.4C2886.01,2289.28 3082.69,2359.3 3160.8,2523.8C3173.37,2550.26 3182.36,2578.28 3187.52,2607.12L3202.2,2688.28C3206.3,2709.99 3192.03,2730.91 3170.32,2735.01C3148.62,2739.11 3127.69,2724.84 3123.59,2703.13C3123.55,2702.93 3123.52,2702.72 3123.48,2702.52L3108.8,2621.36C3084.54,2485.57 2954.8,2395.16 2819.01,2419.41C2797.09,2423.33 2775.79,2430.16 2755.68,2439.72C2691.31,2469.96 2618.94,2478.75 2549.2,2464.8L2387.6,2432C2271,2408.82 2154.13,2470.6 2107.6,2580L2052.24,2710.96C2045.98,2725.8 2031.42,2735.43 2015.32,2735.4Z" style="fill-rule:nonzero;"/>
        <path d="M3025.2,3559.28C3007.23,3559.27 2991.48,3547.28 2986.68,3529.96L2931.56,3330.68C2906.99,3241.74 2814.96,3189.56 2726.02,3214.13C2722.65,3215.06 2719.31,3216.1 2716,3217.24L2471.16,3301.84C2396.18,3327.63 2313.38,3316 2248.4,3270.56L2051.44,3132.32C1980.41,3082.4 1882.99,3095.17 1827.24,3161.72C1767.22,3233.97 1671.25,3265.68 1580,3243.4L1476.84,3218.72C1387.04,3197.18 1296.79,3252.52 1275.25,3342.31C1270.07,3363.94 1269.25,3386.38 1272.84,3408.32L1289.96,3512.8C1293.54,3534.6 1278.76,3555.18 1256.96,3558.76C1235.16,3562.34 1214.58,3547.56 1211,3525.76L1193.88,3421.28C1171.83,3286.53 1263.19,3159.41 1397.95,3137.36C1430.32,3132.06 1463.42,3133.26 1495.32,3140.88L1598.48,3165.56C1660.11,3180.57 1724.9,3159.15 1765.44,3110.36C1847.86,3011.98 1991.88,2993.05 2096.919,3066.8L2293.88,3205.08C2337.83,3235.83 2393.84,3243.69 2444.56,3226.24L2689.36,3141.64C2818.37,3097.02 2959.11,3165.43 3003.73,3294.44C3005.43,3299.35 3006.97,3304.31 3008.36,3309.32L3064,3508.6C3069.89,3529.89 3057.4,3551.93 3036.1,3557.81C3036.07,3557.82 3036.03,3557.83 3036,3557.84C3032.48,3558.8 3028.85,3559.28 3025.2,3559.28Z" style="fill-rule:nonzero;"/>
        <path d="M2127.36,1019.76C2045.76,1020.38 1972.65,969.418 1945,892.64C1923.37,833.631 1857.99,803.332 1798.98,824.966C1792.29,827.42 1785.84,830.499 1779.72,834.16L1566.12,962.16C1474.27,1017.11 1355.26,987.196 1300.31,895.345C1299.29,893.632 1298.29,891.904 1297.32,890.16C1239.08,785.6 1153.56,633.16 1076.84,500.76C1064.99,482.117 1070.49,457.396 1089.14,445.544C1107.78,433.692 1132.5,439.198 1144.35,457.841C1144.96,458.79 1145.52,459.764 1146.04,460.76C1223.04,593.6 1308.84,746.48 1367.2,851.28C1397.78,906.164 1467.06,925.865 1521.95,895.284C1522.97,894.712 1523.99,894.124 1525,893.52L1738.64,765.52C1830.52,710.612 1949.51,740.58 2004.42,832.456C2010.62,842.833 2015.84,853.77 2020,865.12C2041.56,924.085 2106.84,954.406 2165.81,932.843C2180.92,927.316 2194.69,918.645 2206.2,907.4L2673.44,452C2689.26,436.536 2714.62,436.823 2730.08,452.64C2745.54,468.458 2745.26,493.816 2729.44,509.28L2262.16,964.68C2226.18,999.995 2177.78,1019.77 2127.36,1019.76Z" style="fill-rule:nonzero;"/>
    </g>
</svg>
